<?xml version="1.0" standalone="no"?>
<!DOCTYPE svg PUBLIC "-//W3C//DTD SVG 20010904//EN"
 "http://www.w3.org/TR/2001/REC-SVG-20010904/DTD/svg10.dtd">
<svg version="1.0" xmlns="http://www.w3.org/2000/svg"
 width="784.000000pt" height="120.000000pt" viewBox="0 0 784.000000 120.000000"
 preserveAspectRatio="xMidYMid meet">
<metadata>
Created by potrace 1.15, written by Peter Selinger 2001-2017
</metadata>
<g transform="translate(0.000000,120.000000) scale(0.100000,-0.100000)"
fill="#000000" stroke="none">
<path d="M229 1005 c-43 -23 -49 -60 -49 -290 0 -277 7 -295 104 -295 l46 0 0
-50 c0 -71 29 -100 100 -100 l50 0 0 -46 c0 -58 12 -79 51 -93 43 -15 445 -15
488 0 56 20 61 43 61 287 0 284 -6 302 -104 302 l-46 0 0 40 c0 46 -21 95 -45
104 -9 3 -37 6 -61 6 l-44 0 0 48 c-1 95 -22 102 -303 102 -173 -1 -228 -4
-248 -15z m551 -215 l0 -70 75 0 75 0 0 -180 c0 -207 -8 -240 -60 -259 -20 -6
-104 -11 -211 -11 l-179 0 0 75 0 75 -75 0 -75 0 0 179 c0 99 4 191 9 204 21
56 26 57 242 57 l199 0 0 -70z"/>
<path d="M506 699 c-26 -20 -26 -22 -26 -150 l0 -129 130 0 c173 0 170 -3 170
172 l0 128 -124 0 c-110 0 -126 -2 -150 -21z"/>
<path d="M6895 940 c-33 -9 -59 -21 -58 -26 8 -51 28 -114 36 -114 29 0 127
34 127 44 -1 27 -27 110 -35 112 -6 1 -37 -6 -70 -16z"/>
<path d="M5725 928 c-27 -5 -53 -15 -57 -21 -11 -17 -10 -57 2 -57 6 0 19 -9
30 -20 19 -19 20 -33 20 -225 l0 -205 -30 -6 c-27 -6 -30 -10 -30 -45 l0 -39
125 0 125 0 0 30 c0 20 -7 33 -22 41 -13 6 -25 14 -28 16 -3 3 -7 125 -10 271
l-5 267 -35 2 c-19 0 -57 -3 -85 -9z"/>
<path d="M2593 774 c-58 -52 -73 -72 -73 -94 0 -24 5 -29 28 -32 l27 -3 5
-136 c5 -147 17 -181 66 -199 35 -14 119 -12 166 2 38 11 39 13 36 52 l-3 41
-53 1 c-29 0 -58 6 -65 13 -7 7 -13 52 -15 116 l-4 105 71 0 71 0 0 50 0 49
-67 3 -68 3 -3 48 c-3 41 -6 47 -25 47 -13 0 -52 -28 -94 -66z"/>
<path d="M6070 774 c-55 -52 -70 -73 -70 -95 0 -24 4 -29 25 -29 l25 0 0 -102
c1 -141 11 -186 49 -220 27 -24 40 -28 89 -28 62 0 128 15 138 31 3 6 3 26 0
45 -7 34 -7 34 -57 32 -71 -3 -79 10 -79 134 l0 98 70 0 70 0 0 50 0 50 -70 0
-70 0 0 50 c0 47 -2 50 -25 50 -17 0 -47 -21 -95 -66z"/>
<path d="M1510 743 c-120 -19 -130 -23 -130 -53 0 -19 8 -33 25 -44 24 -16 25
-20 25 -131 0 -114 0 -115 -25 -121 -25 -6 -33 -33 -19 -68 9 -22 234 -24 234
-2 0 8 3 21 6 30 4 10 -5 20 -25 31 l-31 16 0 113 c0 126 0 126 69 126 56 0
61 -11 61 -133 0 -101 -1 -109 -21 -114 -16 -5 -19 -12 -17 -42 l3 -36 113 -3
112 -3 0 34 c0 26 -6 36 -25 45 -25 11 -25 14 -26 129 0 138 -11 179 -58 210
-41 28 -87 29 -160 4 -52 -18 -54 -18 -58 0 -3 11 -10 18 -17 18 -6 -1 -22 -4
-36 -6z"/>
<path d="M2145 745 c-5 -1 -36 -8 -69 -15 l-58 -12 7 -56 c9 -76 13 -82 46
-82 22 0 32 7 44 30 14 27 20 30 65 30 39 0 52 -4 64 -22 9 -12 16 -32 16 -44
0 -19 -7 -22 -62 -28 -87 -9 -161 -46 -183 -92 -23 -48 -13 -95 26 -128 38
-32 106 -35 179 -7 39 15 50 16 50 6 0 -24 19 -27 90 -15 67 11 70 13 70 40 0
19 -8 33 -25 44 -24 16 -25 19 -25 137 0 146 -12 180 -71 203 -34 14 -134 21
-164 11z"/>
<path d="M3100 743 c-118 -19 -130 -24 -130 -51 0 -17 10 -34 27 -48 27 -22
28 -25 33 -154 l5 -132 33 -29 c27 -24 41 -29 85 -29 30 0 70 9 96 20 53 24
51 24 51 0 0 -24 15 -25 107 -9 60 11 63 12 63 40 0 18 -7 32 -20 39 -19 10
-20 21 -20 166 0 86 -5 164 -10 174 -11 21 -11 21 -127 -1 -49 -10 -53 -13
-53 -39 0 -19 8 -33 25 -44 24 -16 25 -21 25 -120 0 -115 -1 -116 -69 -116
-20 0 -42 5 -49 12 -8 8 -12 57 -12 154 0 78 -3 149 -6 158 -6 16 -9 17 -54 9z"/>
<path d="M3720 743 c-120 -19 -130 -23 -130 -53 0 -19 8 -33 25 -44 24 -16 25
-20 25 -130 0 -112 0 -113 -26 -125 -17 -8 -24 -17 -20 -27 3 -9 6 -24 6 -35
0 -18 8 -19 120 -19 97 0 120 3 120 14 0 8 2 21 5 28 4 9 -7 20 -30 31 l-35
17 0 110 0 110 60 0 c52 0 60 3 60 19 0 10 3 39 6 65 6 43 5 46 -16 46 -13 0
-43 -11 -67 -25 l-43 -26 -10 26 c-5 14 -13 24 -17 24 -5 -1 -19 -4 -33 -6z"/>
<path d="M4147 735 c-86 -30 -127 -99 -127 -215 0 -117 39 -182 127 -211 45
-15 144 -7 201 16 43 18 43 18 37 59 -4 22 -9 43 -11 45 -1 2 -17 -2 -35 -8
-75 -26 -169 -5 -169 38 0 15 14 20 70 30 38 6 92 16 120 22 49 10 50 11 50
47 -1 46 -22 106 -47 134 -45 52 -140 71 -216 43z"/>
<path d="M4689 741 c-46 -15 -79 -43 -107 -90 -24 -40 -27 -57 -27 -131 0 -75
3 -90 28 -133 36 -60 87 -86 169 -87 58 0 143 22 165 44 19 18 -2 89 -25 82
-95 -29 -139 -26 -174 11 -20 22 -23 35 -23 105 0 68 3 82 20 94 27 20 73 8
103 -27 16 -19 33 -29 52 -29 26 0 29 4 35 43 3 23 8 54 11 68 4 23 0 27 -38
39 -54 16 -155 22 -189 11z"/>
<path d="M5150 739 c-100 -16 -100 -16 -100 -53 0 -25 6 -35 25 -44 25 -11 25
-14 25 -127 0 -126 12 -171 51 -199 32 -22 123 -21 176 4 42 19 42 19 49 -2 5
-18 11 -20 58 -14 110 14 116 16 116 43 0 15 -10 33 -25 45 -25 19 -25 21 -25
176 0 86 -4 162 -8 168 -6 11 -75 6 -148 -11 -32 -7 -38 -62 -10 -77 33 -17
36 -27 36 -129 0 -92 -1 -97 -22 -103 -39 -10 -96 -7 -105 7 -4 6 -10 81 -13
166 -3 91 -9 155 -15 156 -5 2 -35 -1 -65 -6z"/>
<path d="M6887 736 c-93 -17 -114 -52 -57 -94 l30 -23 0 -110 0 -109 -30 -6
c-27 -6 -30 -10 -30 -45 l0 -39 125 0 125 0 0 28 c0 20 -9 35 -30 50 l-30 23
0 153 c0 85 -3 161 -6 170 -7 18 -6 18 -97 2z"/>
<path d="M7270 739 c-100 -16 -100 -16 -100 -54 0 -19 4 -35 9 -35 5 0 17 -7
25 -16 13 -12 16 -39 16 -124 0 -107 0 -108 -25 -114 -21 -5 -25 -12 -25 -46
l0 -40 120 0 120 0 0 26 c0 16 -12 37 -30 54 -30 28 -30 29 -30 133 0 116 1
117 75 117 55 0 60 -9 63 -129 4 -103 3 -109 -17 -116 -17 -5 -21 -15 -21 -46
l0 -39 115 0 115 0 0 28 c0 20 -9 35 -30 50 l-30 23 0 120 c0 142 -13 183 -66
205 -45 19 -84 18 -149 -5 -53 -19 -54 -19 -60 0 -4 10 -9 18 -13 18 -4 -1
-32 -5 -62 -10z"/>
<path d="M6552 421 c-35 -8 -61 -19 -59 -25 2 -6 10 -35 17 -64 11 -39 18 -51
29 -48 9 3 37 10 64 17 29 7 47 17 47 26 0 22 -22 103 -29 106 -3 2 -34 -3
-69 -12z"/>
</g>
</svg>
